<svg xmlns="http://www.w3.org/2000/svg" viewBox="0 0 120 32" width="480" height="128">
  <g fill="none" stroke="#1F6B48" stroke-width="2.4" stroke-linecap="round" stroke-linejoin="round">
    <path d="M10 28.8 V17.8 C10 12.9 14 8.9 18.9 8.9"/>
    <path d="M10 22.2 C10 18.7 12.8 15.9 16.3 15.9"/>
    <path d="M18.9 8.9 C18.9 5 22.1 1.8 26 1.8 C26 5.7 22.8 8.9 18.9 8.9 Z"/>
  </g>
  <circle cx="10" cy="28.8" r="2.3" fill="#1F6B48"/>
  <circle cx="16.3" cy="15.9" r="2.3" fill="#1F6B48"/>
  <path d="M43.4 27.0V25.3H46.6Q47.6 25.3 48.2 24.7Q48.8 24.1 48.8 23.2V22.1L48.8 20.3H48.7Q48.6 21.3 47.7 21.8Q46.9 22.4 45.7 22.4Q43.9 22.4 42.9 21.3Q41.8 20.1 41.8 18.2V15.7Q41.8 13.7 42.9 12.6Q43.9 11.4 45.7 11.4Q46.9 11.4 47.7 12.0Q48.6 12.6 48.7 13.6H48.8V11.6H50.6V23.2Q50.6 24.9 49.6 26.0Q48.5 27.0 46.6 27.0ZM46.3 20.8Q47.4 20.8 48.1 20.1Q48.8 19.4 48.8 18.1V15.8Q48.8 14.5 48.1 13.8Q47.4 13.1 46.3 13.1Q45.1 13.1 44.4 13.8Q43.7 14.5 43.7 15.6V18.3Q43.7 19.4 44.4 20.1Q45.1 20.8 46.3 20.8Z M53.9 23.2V21.5H58.0V13.4H54.3V11.6H59.9V21.5H63.8V23.2ZM58.7 9.6Q58.0 9.6 57.6 9.2Q57.2 8.9 57.2 8.2Q57.2 7.6 57.6 7.3Q58.0 6.9 58.7 6.9Q59.4 6.9 59.8 7.3Q60.2 7.6 60.2 8.2Q60.2 8.9 59.8 9.2Q59.4 9.6 58.7 9.6Z M71.7 23.2Q70.2 23.2 69.4 22.4Q68.5 21.5 68.5 20.2V13.4H65.2V11.6H68.5V8.4H70.4V11.6H75.1V13.4H70.4V20.2Q70.4 20.7 70.7 21.1Q71.1 21.5 71.7 21.5H75.0V23.2Z M78.8 23.2 77.0 11.6H78.6L79.8 19.8Q79.8 20.3 79.9 20.8Q80.0 21.4 80.0 21.7Q80.0 21.4 80.1 20.8Q80.1 20.3 80.2 19.8L81.7 11.6H83.5L85.0 19.8Q85.1 20.3 85.2 20.8Q85.2 21.4 85.2 21.7Q85.3 21.4 85.4 20.8Q85.4 20.3 85.5 19.8L86.7 11.6H88.2L86.3 23.2H84.2L82.9 15.2Q82.8 14.6 82.7 14.0Q82.6 13.3 82.6 13.0Q82.6 13.3 82.5 14.0Q82.4 14.6 82.3 15.2L80.9 23.2Z M90.2 23.2V21.5H94.3V13.4H90.6V11.6H96.2V21.5H100.1V23.2ZM95.0 9.6Q94.3 9.6 93.9 9.2Q93.5 8.9 93.5 8.2Q93.5 7.6 93.9 7.3Q94.3 6.9 95.0 6.9Q95.7 6.9 96.1 7.3Q96.5 7.6 96.5 8.2Q96.5 8.9 96.1 9.2Q95.7 9.6 95.0 9.6Z M103.9 27.0V25.3H107.1Q108.1 25.3 108.7 24.7Q109.3 24.1 109.3 23.2V22.1L109.3 20.3H109.2Q109.1 21.3 108.2 21.8Q107.4 22.4 106.2 22.4Q104.4 22.4 103.4 21.3Q102.3 20.1 102.3 18.2V15.7Q102.3 13.7 103.4 12.6Q104.4 11.4 106.2 11.4Q107.4 11.4 108.2 12.0Q109.1 12.6 109.2 13.6H109.3V11.6H111.1V23.2Q111.1 24.9 110.1 26.0Q109.0 27.0 107.1 27.0ZM106.8 20.8Q107.9 20.8 108.6 20.1Q109.3 19.4 109.3 18.1V15.8Q109.3 14.5 108.6 13.8Q107.9 13.1 106.8 13.1Q105.6 13.1 104.9 13.8Q104.2 14.5 104.2 15.6V18.3Q104.2 19.4 104.9 20.1Q105.6 20.8 106.8 20.8Z" fill="#1A1F1C"/>
</svg>
